<?xml version="1.0" encoding="UTF-8" standalone="no"?>
<!-- Created with Inkscape (http://www.inkscape.org/) -->

<svg
   xmlns:dc="http://purl.org/dc/elements/1.1/"
   xmlns:cc="http://creativecommons.org/ns#"
   xmlns:rdf="http://www.w3.org/1999/02/22-rdf-syntax-ns#"
   xmlns:svg="http://www.w3.org/2000/svg"
   xmlns="http://www.w3.org/2000/svg"
   xmlns:sodipodi="http://sodipodi.sourceforge.net/DTD/sodipodi-0.dtd"
   xmlns:inkscape="http://www.inkscape.org/namespaces/inkscape"
   width="800mm"
   height="400mm"
   viewBox="0 0 800 400"
   version="1.1"
   id="SVGRoot"
   inkscape:version="0.92.4 (5da689c313, 2019-01-14)"
   sodipodi:docname="drawing3.svg">
  <defs
     id="defs1019" />
  <sodipodi:namedview
     id="base"
     pagecolor="#ffffff"
     bordercolor="#666666"
     borderopacity="1.0"
     inkscape:pageopacity="0.0"
     inkscape:pageshadow="2"
     inkscape:zoom="0.478947"
     inkscape:cx="1377.5949"
     inkscape:cy="835.6343"
     inkscape:document-units="mm"
     inkscape:current-layer="text1042"
     showgrid="false"
     inkscape:window-width="1366"
     inkscape:window-height="705"
     inkscape:window-x="-8"
     inkscape:window-y="-8"
     inkscape:window-maximized="1" />
  <metadata
     id="metadata1022">
    <rdf:RDF>
      <cc:Work
         rdf:about="">
        <dc:format>image/svg+xml</dc:format>
        <dc:type
           rdf:resource="http://purl.org/dc/dcmitype/StillImage" />
        <dc:title></dc:title>
      </cc:Work>
    </rdf:RDF>
  </metadata>
  <g
     inkscape:label="Layer 1"
     inkscape:groupmode="layer"
     id="layer1">
    <flowRoot
       xml:space="preserve"
       id="flowRoot1032"
       style="fill:black;fill-opacity:1;stroke:none;font-family:'Times New Roman';font-style:normal;font-weight:bold;font-size:136.06299213px;line-height:24.65;letter-spacing:0px;word-spacing:0px;-inkscape-font-specification:'Times New Roman, Bold';font-stretch:normal;font-variant:normal;text-anchor:start;text-align:start;writing-mode:lr;font-variant-ligatures:normal;font-variant-caps:normal;font-variant-numeric:normal;font-feature-settings:normal"><flowRegion
         id="flowRegion1034"><rect
           id="rect1036"
           width="1706.6929"
           height="974.40942"
           x="348.4252"
           y="-59.055107" /></flowRegion><flowPara
         id="flowPara1038" /></flowRoot>    <g
       aria-label="ХАОС"
       transform="matrix(1.0688052,0,0,0.93562422,-38.669902,5.5242717)"
       style="font-style:normal;font-variant:normal;font-weight:bold;font-stretch:normal;font-size:171.13545227px;line-height:24.64999962;font-family:'Times New Roman';-inkscape-font-specification:'Times New Roman, Bold';font-variant-ligatures:normal;font-variant-caps:normal;font-variant-numeric:normal;font-feature-settings:normal;text-align:start;letter-spacing:0px;word-spacing:0px;writing-mode:lr-tb;text-anchor:start;fill:#4d4d4d;fill-opacity:1;stroke:#4d4d4d;stroke-width:0.26458332"
       id="text1046">
      <path
         d="m 221.91877,187.07077 31.25227,46.37704 q 7.77129,11.53159 11.03022,14.03846 3.34249,2.4233 7.85485,2.92467 v 3.09181 h -55.23464 v -3.09181 q 6.60142,-0.50137 8.52335,-2.00549 1.92193,-1.50412 1.92193,-3.67674 0,-1.50412 -0.58494,-2.67399 -1.16987,-2.50687 -5.84935,-9.35897 l -16.54532,-24.48373 -17.29739,21.14124 q -7.77128,9.60966 -7.77128,13.03571 0,2.4233 2.00549,4.51236 2.00549,2.08906 5.93292,3.00824 1.75481,0.50137 7.18635,0.50137 v 3.09181 h -43.53592 v -3.09181 q 7.43704,-1.08631 11.69871,-4.01098 5.59867,-3.84387 15.62614,-16.04395 L 200.6104,202.9476 171.78143,160.58154 q -7.10279,-10.44528 -8.10554,-11.61515 -2.25618,-2.75755 -4.4288,-3.92742 -2.17262,-1.16987 -6.01648,-1.75481 v -3.0918 h 56.23738 v 3.0918 h -2.84111 q -4.84661,0 -6.76854,1.58768 -1.92193,1.50412 -1.92193,3.84387 0,1.83837 0.58493,3.17536 l 5.7658,8.69047 14.03845,21.39194 11.9494,-14.6234 q 9.19185,-11.2809 9.19185,-15.79326 0,-2.25618 -1.337,-4.17811 -1.25343,-1.92193 -3.67674,-3.00824 -2.4233,-1.08631 -7.5206,-1.08631 v -3.0918 h 41.69756 v 3.0918 q -4.93018,0.0836 -7.93842,1.25344 -3.00824,1.0863 -6.43429,4.17811 -2.17262,2.00549 -10.86309,12.45077 z"
         style="fill:#4d4d4d;stroke:#4d4d4d;stroke-width:0.26458332"
         id="path1048"
         inkscape:connector-curvature="0" />
      <path
         d="m 344.50456,221.24772 h -40.02631 l -4.76304,11.03022 c -1.55983,3.67674 -2.33975,6.71283 -2.33975,9.10828 0,3.17537 1.28129,5.51511 3.84387,7.01923 1.50412,0.89133 5.20871,1.55983 11.11377,2.00549 v 3.09181 h -37.68656 v -3.09181 c 4.06669,-0.61279 7.40918,-2.28403 10.02746,-5.01373 2.61829,-2.78541 5.84936,-8.49549 9.69322,-17.13026 l 9.3204,-20.79313 31.20729,-69.6212 h 1.58768 l 40.86193,92.9212 c 3.89957,8.80189 7.10279,14.34485 9.60966,16.62888 1.89407,1.72695 4.56806,2.7297 8.02197,3.00824 v 3.09181 h -54.81682 v -3.09181 h 2.25618 c 4.40094,0 7.49274,-0.61279 9.2754,-1.83837 1.22558,-0.89133 1.83837,-2.17261 1.83837,-3.84386 0,-1.00275 -0.16712,-2.03335 -0.50137,-3.0918 -0.11141,-0.50137 -0.94704,-2.59043 -2.50687,-6.26717 z m -2.84111,-6.1836 -16.87957,-39.02356 -17.38095,39.02356 z"
         style="fill:#4d4d4d;stroke:#4d4d4d;stroke-width:0.26458332"
         id="path1050"
         inkscape:connector-curvature="0"
         sodipodi:nodetypes="cccsccccccccccccccccscsccccccc" />
      <path
         d="m 454.72314,138.60468 q 27.07416,-1.00275 43.95373,15.79326 16.96314,16.79601 16.96314,42.0318 0,21.55906 -12.6179,37.93726 -16.71245,21.72618 -47.21266,21.72618 -30.58378,0 -47.29623,-20.72344 -13.20283,-16.3782 -13.20283,-38.85644 0,-25.23579 17.13026,-42.0318 17.21382,-16.87957 42.28249,-15.87682 z m 1.00274,5.34798 q -15.54257,0 -23.64811,15.87682 -6.60141,13.03571 -6.60141,37.43588 0,28.9961 10.19459,42.86743 7.10279,9.69322 19.88781,9.69322 8.60691,0 14.3727,-4.17811 7.35348,-5.34799 11.44803,-17.0467 4.09455,-11.78227 4.09455,-30.66734 0,-22.47824 -4.17811,-33.59202 -4.17811,-11.19733 -10.69597,-15.79326 -6.43429,-4.59592 -14.87408,-4.59592 z"
         style="fill:#4d4d4d;stroke:#4d4d4d;stroke-width:0.26458332"
         id="path1052"
         inkscape:connector-curvature="0" />
      <path
         d="m 637.89157,137.60193 v 39.27425 h -3.25892 q -3.67674,-15.37545 -13.70421,-23.56455 -10.02747,-8.1891 -22.72893,-8.1891 -10.6124,0 -19.47,6.10004 -8.85759,6.10005 -12.95214,15.96039 -5.26442,12.6179 -5.26442,28.07691 0,15.20833 3.84386,27.74266 3.84386,12.45077 12.03296,18.88507 8.1891,6.35073 21.22481,6.35073 10.69596,0 19.55356,-4.67949 8.94116,-4.67948 18.8015,-16.12751 v 9.77678 q -9.52609,9.94391 -19.88781,14.45627 -10.27815,4.4288 -24.06592,4.4288 -18.13301,0 -32.25502,-7.26992 -14.03846,-7.26991 -21.72618,-20.89056 -7.60417,-13.62064 -7.60417,-28.99609 0,-16.21107 8.43979,-30.7509 8.52335,-14.53983 22.89605,-22.56181 14.45627,-8.02197 30.66734,-8.02197 11.9494,0 25.23579,5.18086 7.68773,3.00824 9.77679,3.00824 2.67399,0 4.59592,-1.92193 2.00549,-2.0055 2.59043,-6.26717 z"
         style="fill:#4d4d4d;stroke:#4d4d4d;stroke-width:0.26458332"
         id="path1054"
         inkscape:connector-curvature="0" />
    </g>
    <g
       aria-label="ХАОС"
       transform="matrix(1.0688052,0,0,0.93562422,-38.669902,5.5242717)"
       style="font-style:normal;font-variant:normal;font-weight:bold;font-stretch:normal;font-size:171.13545227px;line-height:24.64999962;font-family:'Times New Roman';-inkscape-font-specification:'Times New Roman, Bold';font-variant-ligatures:normal;font-variant-caps:normal;font-variant-numeric:normal;font-feature-settings:normal;text-align:start;letter-spacing:0px;word-spacing:0px;writing-mode:lr-tb;text-anchor:start;fill:#ffffff;fill-opacity:1;stroke:none;stroke-width:0.26458332"
       id="text1042">
      <path
         d="m 221.91877,187.07077 6.48537,9.62401 6.20274,9.20461 5.12206,7.60091 13.4421,19.94751 c 5.18086,7.68773 8.8576,12.36721 11.03022,14.03846 2.22833,1.61553 4.84661,2.59042 7.85485,2.92467 v 3.09181 h -11.55654 -12.40474 -9.82042 -7.75297 -13.69997 v -3.09181 c 4.40095,-0.33425 7.24206,-1.00274 8.52335,-2.00549 1.28129,-1.00275 1.92193,-2.22833 1.92193,-3.67674 0,-1.00275 -0.19498,-1.89408 -0.58494,-2.67399 -0.77991,-1.67125 -2.7297,-4.7909 -5.84935,-9.35897 l -4.57104,-6.76421 -4.90731,-7.26184 -7.06697,-10.45768 -17.29739,21.14124 c -5.18085,6.40644 -7.77128,10.75168 -7.77128,13.03571 0,1.61553 0.6685,3.11965 2.00549,4.51236 1.33699,1.39271 3.31463,2.39545 5.93292,3.00824 1.16987,0.33425 3.56532,0.50137 7.18635,0.50137 v 3.09181 h -22.22744 -21.30848 v -3.09181 c 4.95803,-0.72421 8.8576,-2.0612 11.69871,-4.01098 1.64248,-1.12767 3.57083,-2.79474 5.78506,-5.00118 2.81749,-2.80759 6.09785,-6.48851 9.84108,-11.04277 l 7.22063,-8.80434 6.09443,-7.43112 4.68402,-5.71137 4.47916,-5.46158 -3.86811,-5.68444 -5.20586,-7.65036 -5.86613,-8.62066 -6.52046,-9.58225 -7.36841,-10.82835 c -4.73519,-6.96352 -7.43704,-10.83524 -8.10554,-11.61515 -1.50412,-1.83837 -2.98039,-3.14751 -4.4288,-3.92742 -1.44841,-0.77991 -3.45391,-1.36485 -6.01648,-1.75481 v -3.0918 h 12.6828 9.30356 10.85415 10.33728 13.05959 v 3.0918 h -2.84111 c -3.23107,0 -5.48725,0.52923 -6.76854,1.58768 -1.28129,1.00275 -1.92193,2.28404 -1.92193,3.84387 0,1.22558 0.19498,2.28403 0.58493,3.17536 l 5.7658,8.69047 14.03845,21.39194 11.9494,-14.6234 c 1.54092,-1.89113 2.88811,-3.6396 4.04155,-5.24541 3.43353,-4.78011 5.1503,-8.29606 5.1503,-10.54785 0,-1.50412 -0.44567,-2.89682 -1.337,-4.17811 -0.83562,-1.28129 -2.0612,-2.28403 -3.67674,-3.00824 -1.61553,-0.72421 -4.1224,-1.08631 -7.5206,-1.08631 v -3.0918 h 41.69756 v 3.0918 c -3.28679,0.0557 -5.93293,0.47355 -7.93842,1.25344 -2.00549,0.7242 -4.15026,2.1169 -6.43429,4.17811 -1.44841,1.33699 -5.06944,5.48725 -10.86309,12.45077 l -10.73778,12.95219 z"
         style="fill:#ffffff;stroke-width:0.26458332"
         id="path1057"
         inkscape:connector-curvature="0"
         sodipodi:nodetypes="ccccccccccccccssccccccsscccccccscccccccccccsccccccccscsccccssccccccccccc" />
      <path
         d="m 344.50456,221.24772 h -12.46947 -6.03039 -7.4923 -7.30956 -6.72459 l -2.53407,5.86838 -2.22897,5.16184 c -1.55983,3.67674 -2.33975,6.71283 -2.33975,9.10828 0,3.17537 1.28129,5.51511 3.84387,7.01923 1.50412,0.89133 5.20871,1.55983 11.11377,2.00549 v 3.09181 h -10.44996 -14.07091 -7.67504 -5.49065 v -3.09181 c 1.44848,-0.21826 2.80508,-0.57081 4.06981,-1.05764 2.28607,-0.87996 4.27195,-2.19866 5.95765,-3.95609 1.18333,-1.25886 2.49183,-3.11511 3.92549,-5.56874 1.73852,-2.97538 3.6611,-6.82922 5.76773,-11.56152 l 1.67775,-3.74294 2.28718,-5.10253 2.97953,-6.64712 1.97551,-4.40723 2.74579,-6.12564 1.6027,-3.57552 2.37594,-5.30054 2.54557,-5.67898 2.26745,-5.05851 1.32161,-2.94842 1.90844,-4.25759 2.10077,-4.68667 1.59974,-3.5689 1.44391,-3.22125 0.63416,-1.41479 1.00995,-2.25312 1.75854,-3.92316 2.43708,-5.43695 2.65703,-5.92764 1.55239,-3.46328 1.64665,-3.67355 h 1.58768 l 1.36011,3.09294 1.59189,3.62 2.99453,6.80966 2.29611,5.22141 2.79917,6.36538 1.20149,2.73222 1.9942,4.53487 1.63341,3.71443 2.29032,5.20825 2.15996,4.91181 2.44416,5.5581 2.52109,5.73302 3.05954,6.95749 2.87031,6.52715 2.79916,6.36538 2.26071,5.14091 4.58577,10.42818 c 1.37016,3.09266 2.65436,5.78298 3.85259,8.07097 2.212,4.22377 4.13102,7.0764 5.75707,8.55791 1.89407,1.72695 4.56806,2.7297 8.02197,3.00824 v 3.09181 h -9.58124 -9.13695 -8.77148 -9.50243 -3.28931 -14.53541 v -3.09181 h 2.25618 c 4.40094,0 7.49274,-0.61279 9.2754,-1.83837 1.22558,-0.89133 1.83837,-2.17261 1.83837,-3.84386 0,-1.00275 -0.16712,-2.03335 -0.50137,-3.0918 -0.11141,-0.50137 -0.94704,-2.59043 -2.50687,-6.26717 l -2.36752,-5.5571 z m -2.84111,-6.1836 -3.84094,-8.87979 -1.93261,-4.46796 -2.91331,-6.73525 -2.74273,-6.34086 -2.24721,-5.19527 -3.20277,-7.40443 -2.82293,6.33802 -2.14747,4.82149 -4.62238,10.37812 -3.30342,7.41681 -4.48475,10.06912 h 9.28208 6.21313 11.87804 z"
         style="fill:#ffffff;stroke-width:0.26458332"
         id="path1059"
         inkscape:connector-curvature="0"
         sodipodi:nodetypes="ccccccccsccccccccscsccccccccccccccccccccccccccccccccccccccccsccccccccccscscccccccccccccccccccc" />
      <path
         d="m 454.72314,138.60468 c 18.04944,-0.6685 32.70068,4.59592 43.95373,15.79326 4.84955,4.80177 8.65928,10.12089 11.42919,15.95736 3.6893,7.7737 5.53395,16.46518 5.53395,26.07444 0,8.23122 -1.37949,15.89603 -4.13846,22.99443 -2.05853,5.29626 -4.88501,10.27721 -8.47944,14.94283 -4.95448,6.44082 -10.81776,11.44958 -17.58985,15.02629 -1.25522,0.66295 -2.54166,1.2767 -3.85932,1.84125 -7.56004,3.23909 -16.14787,4.85864 -25.76349,4.85864 -9.98696,0 -18.86458,-1.65732 -26.63287,-4.97197 -1.39898,-0.59693 -2.76199,-1.24762 -4.08902,-1.95205 -3.08094,-1.63547 -5.96795,-3.56067 -8.66102,-5.7756 -2.85586,-2.34879 -5.49363,-5.0234 -7.91332,-8.02382 -3.09519,-3.8396 -5.64617,-7.93065 -7.65293,-12.27313 -1.71236,-3.70543 -3.02847,-7.59393 -3.94834,-11.6655 -0.60156,-2.66266 -1.03366,-5.40362 -1.29629,-8.22287 -0.20351,-2.18463 -0.30527,-4.41628 -0.30527,-6.69494 0,-6.09116 0.7485,-11.81354 2.2455,-17.16716 0.37881,-1.35474 0.80556,-2.68586 1.28024,-3.99337 0.84476,-2.32692 1.84132,-4.57904 2.98969,-6.75638 1.34988,-2.5594 2.90951,-5.01546 4.67889,-7.36818 1.76899,-2.3522 3.74763,-4.6011 5.93594,-6.74671 4.59875,-4.50945 9.61795,-8.06169 15.05762,-10.65671 4.30583,-2.05412 8.87512,-3.50847 13.70785,-4.36307 4.29736,-0.75992 8.80303,-1.0456 13.51702,-0.85704 z m 1.00274,5.34798 c -10.36171,0 -18.24442,5.29227 -23.64811,15.87682 -1.91043,3.7725 -3.40621,8.25885 -4.48733,13.45903 -1.40939,6.77914 -2.11408,14.77142 -2.11408,23.97685 0,3.30593 0.0994,6.4644 0.29817,9.47541 0.25576,3.87414 0.67605,7.50418 1.26088,10.8901 0.85011,4.92179 2.04789,9.32779 3.59332,13.21801 1.39675,3.51596 3.07749,6.61059 5.04222,9.28391 2.19605,2.99697 4.79949,5.29898 7.81032,6.90603 3.48121,1.85813 4.40585,5.14894 8.9763,5.14894 5.73794,0 13.63003,-3.75445 17.47389,-6.53986 4.90232,-3.56533 8.71833,-9.24756 11.44803,-17.0467 2.7297,-7.85485 4.09455,-18.07729 4.09455,-30.66734 0,-6.95887 -0.30033,-13.10085 -0.90098,-18.42594 -0.69281,-6.14216 -1.78519,-11.19752 -3.27713,-15.16608 -2.78541,-7.46489 -6.35073,-12.72931 -10.69597,-15.79326 -4.28953,-3.06395 -9.24755,-4.59592 -14.87408,-4.59592 z"
         style="fill:#ffffff;stroke-width:0.26458332;opacity:0.08"
         id="path1061"
         inkscape:connector-curvature="0"
         sodipodi:nodetypes="ccssscsssssscsssssssscsscscssssscssccssccs" />
      <path
         d="m 637.89157,137.60193 v 39.27425 h -3.25892 c -2.45116,-10.2503 -7.01923,-18.10515 -13.70421,-23.56455 -6.68498,-5.4594 -14.26129,-8.1891 -22.72893,-8.1891 -3.18302,0 -6.24765,0.41157 -9.19387,1.23472 -3.60239,1.00646 0,0 -10.27613,4.86532 -5.90506,4.0667 -10.22244,9.38683 -12.95214,15.96039 -3.50961,8.41193 -5.26442,17.7709 -5.26442,28.07691 0,10.13889 1.28129,19.38644 3.84386,27.74266 2.56257,8.30051 6.57356,14.59554 12.03296,18.88507 1.07077,0.8304 2.20369,1.57936 3.39876,2.24688 4.89806,2.7359 10.84007,4.10385 17.82605,4.10385 7.13064,0 13.64849,-1.55983 19.55356,-4.67949 2.87335,-1.50381 5.81789,-3.53187 8.83362,-6.08419 3.24043,-2.74248 6.56306,-6.09026 9.96788,-10.04332 v 9.77678 c -6.35073,6.62927 -12.98,11.44803 -19.88781,14.45627 -6.8521,2.95253 -14.87407,4.4288 -24.06592,4.4288 -6.10419,0 -11.86747,-0.61788 -17.28986,-1.85365 -5.31605,-1.21154 -10.30444,-3.01696 -14.96516,-5.41627 -4.82727,-2.49983 -9.09136,-5.56285 -12.79226,-9.18905 -3.4743,-3.40417 -6.45228,-7.30468 -8.93392,-11.70151 -2.5181,-4.51044 -4.4108,-9.1652 -5.67811,-13.96428 -1.28404,-4.86245 -1.92606,-9.87305 -1.92606,-15.03181 0,-4.2486 0.43477,-8.41111 1.30432,-12.48753 1.03317,-4.84351 2.68014,-9.56548 4.94092,-14.16591 0.67655,-1.3767 1.40806,-2.74252 2.19455,-4.09746 2.06928,-3.52994 4.39713,-6.77175 6.98355,-9.72544 2.26076,-2.58179 4.71908,-4.94344 7.37496,-7.08495 2.64927,-2.13618 5.49512,-4.05332 8.53754,-5.75142 1.87585,-1.04093 3.77386,-1.98056 5.69403,-2.81889 7.94505,-3.46872 16.26948,-5.20308 24.97331,-5.20308 7.96627,0 16.3782,1.72695 25.23579,5.18086 5.12515,2.00549 8.38408,3.00824 9.77679,3.00824 1.78266,0 3.31463,-0.64064 4.59592,-1.92193 1.33699,-1.337 2.20047,-3.42606 2.59043,-6.26717 z"
         style="fill:#000000;stroke-width:0.26458332;opacity:0.01"
         id="path1063"
         inkscape:connector-curvature="0"
         sodipodi:nodetypes="cccsssccsccsscscccsscscsssscsscsscsccc" />
    </g>
  </g>
</svg>
