<?xml version="1.0" encoding="UTF-8" standalone="no"?>
<!-- Created with Inkscape (http://www.inkscape.org/) -->

<svg
   xmlns:dc="http://purl.org/dc/elements/1.1/"
   xmlns:cc="http://creativecommons.org/ns#"
   xmlns:rdf="http://www.w3.org/1999/02/22-rdf-syntax-ns#"
   xmlns:svg="http://www.w3.org/2000/svg"
   xmlns="http://www.w3.org/2000/svg"
   xmlns:sodipodi="http://sodipodi.sourceforge.net/DTD/sodipodi-0.dtd"
   xmlns:inkscape="http://www.inkscape.org/namespaces/inkscape"
   width="800mm"
   height="400mm"
   viewBox="0 0 800 400"
   version="1.1"
   id="SVGRoot"
   inkscape:version="0.92.4 (5da689c313, 2019-01-14)"
   sodipodi:docname="drawing.svg">
  <defs
     id="defs1019" />
  <sodipodi:namedview
     id="base"
     pagecolor="#ffffff"
     bordercolor="#666666"
     borderopacity="1.0"
     inkscape:pageopacity="0.0"
     inkscape:pageshadow="2"
     inkscape:zoom="0.33866667"
     inkscape:cx="1451.6906"
     inkscape:cy="934.33133"
     inkscape:document-units="mm"
     inkscape:current-layer="layer1"
     showgrid="false"
     inkscape:window-width="1366"
     inkscape:window-height="705"
     inkscape:window-x="-8"
     inkscape:window-y="-8"
     inkscape:window-maximized="1" />
  <metadata
     id="metadata1022">
    <rdf:RDF>
      <cc:Work
         rdf:about="">
        <dc:format>image/svg+xml</dc:format>
        <dc:type
           rdf:resource="http://purl.org/dc/dcmitype/StillImage" />
        <dc:title></dc:title>
      </cc:Work>
    </rdf:RDF>
  </metadata>
  <g
     inkscape:label="Layer 1"
     inkscape:groupmode="layer"
     id="layer1">
    <flowRoot
       xml:space="preserve"
       id="flowRoot1032"
       style="fill:black;fill-opacity:1;stroke:none;font-family:'Times New Roman';font-style:normal;font-weight:bold;font-size:136.06299213px;line-height:24.65;letter-spacing:0px;word-spacing:0px;-inkscape-font-specification:'Times New Roman, Bold';font-stretch:normal;font-variant:normal;text-anchor:start;text-align:start;writing-mode:lr;font-variant-ligatures:normal;font-variant-caps:normal;font-variant-numeric:normal;font-feature-settings:normal"><flowRegion
         id="flowRegion1034"><rect
           id="rect1036"
           width="1706.6929"
           height="974.40942"
           x="348.4252"
           y="-59.055107" /></flowRegion><flowPara
         id="flowPara1038" /></flowRoot>    <g
       aria-label="ХАОС"
       transform="matrix(1.0688052,0,0,0.93562422,-44.899691,-67.578941)"
       style="font-style:normal;font-variant:normal;font-weight:bold;font-stretch:normal;font-size:171.13545227px;line-height:24.64999962;font-family:'Times New Roman';-inkscape-font-specification:'Times New Roman, Bold';font-variant-ligatures:normal;font-variant-caps:normal;font-variant-numeric:normal;font-feature-settings:normal;text-align:start;letter-spacing:0px;word-spacing:0px;writing-mode:lr-tb;text-anchor:start;fill:#ffffff;fill-opacity:1;stroke:#4d4d4d;stroke-width:0.26458332"
       id="text1046">
      <path
         d="m 221.91877,187.07077 31.25227,46.37704 q 7.77129,11.53159 11.03022,14.03846 3.34249,2.4233 7.85485,2.92467 v 3.09181 h -55.23464 v -3.09181 q 6.60142,-0.50137 8.52335,-2.00549 1.92193,-1.50412 1.92193,-3.67674 0,-1.50412 -0.58494,-2.67399 -1.16987,-2.50687 -5.84935,-9.35897 l -16.54532,-24.48373 -17.29739,21.14124 q -7.77128,9.60966 -7.77128,13.03571 0,2.4233 2.00549,4.51236 2.00549,2.08906 5.93292,3.00824 1.75481,0.50137 7.18635,0.50137 v 3.09181 h -43.53592 v -3.09181 q 7.43704,-1.08631 11.69871,-4.01098 5.59867,-3.84387 15.62614,-16.04395 L 200.6104,202.9476 171.78143,160.58154 q -7.10279,-10.44528 -8.10554,-11.61515 -2.25618,-2.75755 -4.4288,-3.92742 -2.17262,-1.16987 -6.01648,-1.75481 v -3.0918 h 56.23738 v 3.0918 h -2.84111 q -4.84661,0 -6.76854,1.58768 -1.92193,1.50412 -1.92193,3.84387 0,1.83837 0.58493,3.17536 l 5.7658,8.69047 14.03845,21.39194 11.9494,-14.6234 q 9.19185,-11.2809 9.19185,-15.79326 0,-2.25618 -1.337,-4.17811 -1.25343,-1.92193 -3.67674,-3.00824 -2.4233,-1.08631 -7.5206,-1.08631 v -3.0918 h 41.69756 v 3.0918 q -4.93018,0.0836 -7.93842,1.25344 -3.00824,1.0863 -6.43429,4.17811 -2.17262,2.00549 -10.86309,12.45077 z"
         style="fill:#ffffff;stroke:#4d4d4d;stroke-width:0.26458332"
         id="path1048"
         inkscape:connector-curvature="0" />
      <path
         d="m 344.50456,221.24772 h -40.02631 l -4.76304,11.03022 c -1.55983,3.67674 -2.33975,6.71283 -2.33975,9.10828 0,3.17537 1.28129,5.51511 3.84387,7.01923 1.50412,0.89133 5.20871,1.55983 11.11377,2.00549 v 3.09181 h -37.68656 v -3.09181 c 4.06669,-0.61279 7.40918,-2.28403 10.02746,-5.01373 2.61829,-2.78541 5.84936,-8.49549 9.69322,-17.13026 l 9.3204,-20.79313 31.20729,-69.6212 h 1.58768 l 40.86193,92.9212 c 3.89957,8.80189 7.10279,14.34485 9.60966,16.62888 1.89407,1.72695 4.56806,2.7297 8.02197,3.00824 v 3.09181 h -54.81682 v -3.09181 h 2.25618 c 4.40094,0 7.49274,-0.61279 9.2754,-1.83837 1.22558,-0.89133 1.83837,-2.17261 1.83837,-3.84386 0,-1.00275 -0.16712,-2.03335 -0.50137,-3.0918 -0.11141,-0.50137 -0.94704,-2.59043 -2.50687,-6.26717 z m -2.84111,-6.1836 -16.87957,-39.02356 -17.38095,39.02356 z"
         style="fill:#ffffff;stroke:#4d4d4d;stroke-width:0.26458332"
         id="path1050"
         inkscape:connector-curvature="0"
         sodipodi:nodetypes="cccsccccccccccccccccscsccccccc" />
      <path
         d="m 454.72314,138.60468 q 27.07416,-1.00275 43.95373,15.79326 16.96314,16.79601 16.96314,42.0318 0,21.55906 -12.6179,37.93726 -16.71245,21.72618 -47.21266,21.72618 -30.58378,0 -47.29623,-20.72344 -13.20283,-16.3782 -13.20283,-38.85644 0,-25.23579 17.13026,-42.0318 17.21382,-16.87957 42.28249,-15.87682 z m 1.00274,5.34798 q -15.54257,0 -23.64811,15.87682 -6.60141,13.03571 -6.60141,37.43588 0,28.9961 10.19459,42.86743 7.10279,9.69322 19.88781,9.69322 8.60691,0 14.3727,-4.17811 7.35348,-5.34799 11.44803,-17.0467 4.09455,-11.78227 4.09455,-30.66734 0,-22.47824 -4.17811,-33.59202 -4.17811,-11.19733 -10.69597,-15.79326 -6.43429,-4.59592 -14.87408,-4.59592 z"
         style="fill:#ffffff;stroke:#4d4d4d;stroke-width:0.26458332"
         id="path1052"
         inkscape:connector-curvature="0" />
      <path
         d="m 637.89157,137.60193 v 39.27425 h -3.25892 q -3.67674,-15.37545 -13.70421,-23.56455 -10.02747,-8.1891 -22.72893,-8.1891 -10.6124,0 -19.47,6.10004 -8.85759,6.10005 -12.95214,15.96039 -5.26442,12.6179 -5.26442,28.07691 0,15.20833 3.84386,27.74266 3.84386,12.45077 12.03296,18.88507 8.1891,6.35073 21.22481,6.35073 10.69596,0 19.55356,-4.67949 8.94116,-4.67948 18.8015,-16.12751 v 9.77678 q -9.52609,9.94391 -19.88781,14.45627 -10.27815,4.4288 -24.06592,4.4288 -18.13301,0 -32.25502,-7.26992 -14.03846,-7.26991 -21.72618,-20.89056 -7.60417,-13.62064 -7.60417,-28.99609 0,-16.21107 8.43979,-30.7509 8.52335,-14.53983 22.89605,-22.56181 14.45627,-8.02197 30.66734,-8.02197 11.9494,0 25.23579,5.18086 7.68773,3.00824 9.77679,3.00824 2.67399,0 4.59592,-1.92193 2.00549,-2.0055 2.59043,-6.26717 z"
         style="fill:#ffffff;stroke:#4d4d4d;stroke-width:0.26458332"
         id="path1054"
         inkscape:connector-curvature="0" />
    </g>
  </g>
</svg>
